<svg width="244" height="500" viewBox="0 0 244 500" fill="none" xmlns="http://www.w3.org/2000/svg">
    <path d="M9.93028 67H2.06972C0.926647 67 0 67.9085 0 69.0291V84.9709C0 86.0915 0.926647 87 2.06972 87H9.93028C11.0734 87 12 86.0915 12 84.9709V69.0291C12 67.9085 11.0734 67 9.93028 67Z" fill="#DCDEE6"/>
    <path d="M9.93028 103H2.06972C0.926647 103 0 103.927 0 105.07V136.93C0 138.073 0.926647 139 2.06972 139H9.93028C11.0734 139 12 138.073 12 136.93V105.07C12 103.927 11.0734 103 9.93028 103Z" fill="#DCDEE6"/>
    <path d="M9.93028 149H2.06972C0.926647 149 0 149.927 0 151.07V182.93C0 184.073 0.926647 185 2.06972 185H9.93028C11.0734 185 12 184.073 12 182.93V151.07C12 149.927 11.0734 149 9.93028 149Z" fill="#DCDEE6"/>
    <path d="M2 48.0874C2 31.2553 2 22.8391 5.26 16.4102C8.12759 10.755 12.7033 6.1572 18.3312 3.27577C24.7293 0 33.105 0 49.8562 0H196.144C212.895 0 221.271 0 227.669 3.27577C233.297 6.1572 237.872 10.755 240.74 16.4102C244 22.8391 244 31.2553 244 48.0874V451.913C244 468.745 244 477.16 240.74 483.59C237.872 489.245 233.297 493.843 227.669 496.724C221.271 500 212.895 500 196.144 500H49.8562C33.105 500 24.7293 500 18.3312 496.724C12.7033 493.843 8.12759 489.245 5.26 483.59C2 477.16 2 468.745 2 451.913V48.0874Z" fill="#4E596D"/>
    <path d="M7 52.1257C7 35.6301 7 27.3824 10.1253 21.0819C12.8744 15.5399 17.261 11.0341 22.6564 8.21024C28.7901 5 36.8196 5 52.8787 5H193.122C209.18 5 217.21 5 223.344 8.21024C228.739 11.0341 233.125 15.5399 235.875 21.0819C239 27.3824 239 35.6301 239 52.1257V447.874C239 464.37 239 472.618 235.875 478.918C233.125 484.46 228.739 488.966 223.344 491.79C217.21 495 209.18 495 193.122 495H52.8787C36.8196 495 28.7901 495 22.6564 491.79C17.261 488.966 12.8744 484.46 10.1253 478.918C7 472.618 7 464.37 7 447.874V52.1257Z" fill="#2C3546"/>
    <path d="M210.3 14H35.7004C23.1633 14 13 24.1026 13 36.5647V469.435C13 481.897 23.1633 492 35.7004 492H210.3C222.837 492 233 481.897 233 469.435V36.5647C233 24.1026 222.837 14 210.3 14Z" fill="#EEE6DF"/>
    <path d="M13 446H233V467C233 479.15 223.15 489 211 489H35C22.8497 489 13 479.15 13 467V446Z" fill="#F7F9FA"/>
    <path fill-rule="evenodd" clip-rule="evenodd" d="M220 458.5V455.5C220 454.671 219.328 454 218.5 454C217.672 454 217 454.671 217 455.5V458.5C217 459.328 217.672 460 218.5 460C219.328 460 220 459.328 220 458.5ZM218.5 453C217.119 453 216 454.119 216 455.5V458.5C216 459.88 217.119 461 218.5 461C219.881 461 221 459.88 221 458.5V455.5C221 454.119 219.881 453 218.5 453ZM214.5 458.5C214.776 458.5 215 458.724 215 459C215 460.219 216.322 462 218.5 462C220.678 462 222 460.219 222 459C222 458.724 222.224 458.5 222.5 458.5C222.776 458.5 223 458.724 223 459C223 460.669 221.438 462.724 219 462.974V464.5C219 464.776 218.776 465 218.5 465C218.224 465 218 464.776 218 464.5V462.974C215.562 462.724 214 460.669 214 459C214 458.724 214.224 458.5 214.5 458.5Z" fill="#3052EA"/>
    <path fill-rule="evenodd" clip-rule="evenodd" d="M195.164 454.998C195.002 455.274 195 455.627 195 456H194L194 455.999H193.725C192.772 455.999 192 456.771 192 457.724V461.274C192 462.227 192.772 462.999 193.725 462.999H199.275C200.228 462.999 201 462.227 201 461.274V457.724C201 456.771 200.228 455.999 199.275 455.999H199V456H198L198 455.904C198.001 455.549 198.002 455.242 197.86 454.991C197.745 454.788 197.454 454.5 196.5 454.5C195.592 454.5 195.291 454.783 195.164 454.998ZM199.275 454.999H198.924C198.883 454.831 198.822 454.66 198.73 454.498C198.375 453.871 197.665 453.5 196.5 453.5C195.364 453.5 194.665 453.876 194.303 454.49C194.206 454.655 194.139 454.829 194.094 454.999H193.725C192.22 454.999 191 456.219 191 457.724V461.274C191 462.779 192.22 463.999 193.725 463.999H199.275C200.78 463.999 202 462.779 202 461.274V457.724C202 456.219 200.78 454.999 199.275 454.999ZM198 459.5C198 460.328 197.328 461 196.5 461C195.672 461 195 460.328 195 459.5C195 458.671 195.672 458 196.5 458C197.328 458 198 458.671 198 459.5ZM199 459.5C199 460.88 197.881 462 196.5 462C195.119 462 194 460.88 194 459.5C194 458.119 195.119 457 196.5 457C197.881 457 199 458.119 199 459.5Z" fill="#3052EA"/>
    <path fill-rule="evenodd" clip-rule="evenodd" d="M26.5 454C26.2239 454 26 454.224 26 454.5V458H22.5C22.2239 458 22 458.224 22 458.5C22 458.776 22.2239 459 22.5 459H26V462.5C26 462.776 26.2239 463 26.5 463C26.7761 463 27 462.776 27 462.5V459H30.5C30.7761 459 31 458.776 31 458.5C31 458.224 30.7761 458 30.5 458H27V454.5C27 454.224 26.7761 454 26.5 454Z" fill="#3052EA"/>
    <rect x="40.3405" y="451.34" width="142.319" height="15.3187" rx="7.65935" fill="white" stroke="#DCDEE6" stroke-width="0.681308"/>
    <path fill-rule="evenodd" clip-rule="evenodd" d="M175.275 454.999H170.725C169.772 454.999 169 455.771 169 456.724V461.274C169 462.226 169.772 462.999 170.725 462.999H173.912C175.617 462.999 177 461.616 177 459.911V456.724C177 455.771 176.227 454.999 175.275 454.999ZM170.725 453.999C169.22 453.999 168 455.219 168 456.724V461.274C168 462.779 169.22 463.999 170.725 463.999H173.912C176.17 463.999 178 462.169 178 459.911V456.724C178 455.219 176.78 453.999 175.275 453.999H170.725Z" fill="#3052EA"/>
    <path d="M178 458.499L175.225 458.499C173.72 458.499 172.5 459.719 172.5 461.224V463.999" stroke="#3052EA"/>
    <line x1="13" y1="445.5" x2="233" y2="445.5" stroke="#DCDEE6"/>
    <g filter="url(#filter0_b_0_32)">
        <path fill-rule="evenodd" clip-rule="evenodd" d="M13 33C13 20.8497 22.8497 11 35 11H211C223.15 11 233 20.8497 233 33V81H13V33Z" fill="#F7F9FA"/>
    </g>
    <path fill-rule="evenodd" clip-rule="evenodd" d="M31.8536 52.1464C32.0488 52.3417 32.0488 52.6583 31.8536 52.8536L26.8536 57.8536C26.6583 58.0488 26.3417 58.0488 26.1464 57.8536C25.9512 57.6583 25.9512 57.3417 26.1464 57.1464L31.1464 52.1464C31.3417 51.9512 31.6583 51.9512 31.8536 52.1464Z" fill="#3052EA"/>
    <path fill-rule="evenodd" clip-rule="evenodd" d="M26.1464 57.1464C26.3417 56.9512 26.6583 56.9512 26.8536 57.1464L31.8536 62.1464C32.0488 62.3417 32.0488 62.6583 31.8536 62.8536C31.6583 63.0488 31.3417 63.0488 31.1464 62.8536L26.1464 57.8536C25.9512 57.6583 25.9512 57.3417 26.1464 57.1464Z" fill="#3052EA"/>
    <g filter="url(#filter1_b_0_32)">
        <path fill-rule="evenodd" clip-rule="evenodd" d="M13 81H233V82H13V81Z" fill="#DCDEE6"/>
    </g>
    <path d="M68 11H178V18.875C178 24.4669 173.383 29 167.688 29H78.3125C72.617 29 68 24.4669 68 18.875V11Z" fill="#2C3546"/>
    <path d="M136.8 18H109.2C108.537 18 108 18.6716 108 19.5C108 20.3284 108.537 21 109.2 21H136.8C137.463 21 138 20.3284 138 19.5C138 18.6716 137.463 18 136.8 18Z" fill="#0F1218"/>
    <path d="M161 19C161 16.7909 159.209 15 157 15C154.791 15 153 16.7909 153 19C153 21.2091 154.791 23 157 23C159.209 23 161 21.2091 161 19Z" fill="#0F1218"/>
    <rect opacity="0.35" x="210.294" y="20.1418" width="12.2027" height="5.85273" rx="1.27111" stroke="#2C3546" stroke-width="0.586667"/>
    <path opacity="0.4" d="M223.372 21.9318V24.2045C223.839 24.012 224.144 23.5643 224.144 23.0682C224.144 22.5721 223.839 22.1243 223.372 21.9318" fill="#2C3546"/>
    <rect x="211.164" y="20.9848" width="10.464" height="4.16667" rx="0.782222" fill="#2C3546"/>
    <path fill-rule="evenodd" clip-rule="evenodd" d="M202.638 21.145C203.931 21.145 205.175 21.6303 206.112 22.5006C206.183 22.5677 206.296 22.5669 206.365 22.4987L207.04 21.8337C207.075 21.7991 207.095 21.7522 207.094 21.7034C207.094 21.6546 207.074 21.608 207.038 21.5738C204.578 19.2714 200.697 19.2714 198.237 21.5738C198.201 21.608 198.181 21.6546 198.181 21.7034C198.18 21.7522 198.2 21.7991 198.235 21.8337L198.91 22.4987C198.979 22.567 199.092 22.5678 199.163 22.5006C200.1 21.6303 201.344 21.145 202.638 21.145ZM202.638 23.3084C203.348 23.3083 204.033 23.5663 204.56 24.032C204.631 24.0981 204.744 24.0967 204.813 24.0288L205.487 23.3638C205.523 23.329 205.542 23.2816 205.542 23.2325C205.541 23.1833 205.521 23.1364 205.484 23.1022C203.88 21.6452 201.396 21.6452 199.792 23.1022C199.756 23.1364 199.735 23.1833 199.735 23.2325C199.734 23.2817 199.754 23.329 199.79 23.3638L200.464 24.0288C200.533 24.0967 200.645 24.0981 200.716 24.032C201.243 23.5666 201.928 23.3087 202.638 23.3084ZM203.988 24.764C203.989 24.8133 203.969 24.8608 203.933 24.8954L202.767 26.0442C202.733 26.078 202.686 26.097 202.638 26.097C202.589 26.097 202.542 26.078 202.508 26.0442L201.342 24.8954C201.306 24.8608 201.286 24.8132 201.288 24.7639C201.289 24.7146 201.31 24.6679 201.348 24.6349C202.092 24.02 203.183 24.02 203.927 24.6349C203.965 24.668 203.987 24.7147 203.988 24.764Z" fill="#2C3546"/>
    <path fill-rule="evenodd" clip-rule="evenodd" d="M194.692 20.0379H194.111C193.79 20.0379 193.53 20.2922 193.53 20.606V25.5303C193.53 25.8441 193.79 26.0985 194.111 26.0985H194.692C195.014 26.0985 195.274 25.8441 195.274 25.5303V20.606C195.274 20.2922 195.014 20.0379 194.692 20.0379ZM191.398 21.3636H191.98C192.301 21.3636 192.561 21.618 192.561 21.9318V25.5303C192.561 25.8441 192.301 26.0985 191.98 26.0985H191.398C191.077 26.0985 190.817 25.8441 190.817 25.5303V21.9318C190.817 21.618 191.077 21.3636 191.398 21.3636ZM189.267 22.6894H188.685C188.364 22.6894 188.104 22.9437 188.104 23.2575V25.5303C188.104 25.8441 188.364 26.0984 188.685 26.0984H189.267C189.588 26.0984 189.848 25.8441 189.848 25.5303V23.2575C189.848 22.9437 189.588 22.6894 189.267 22.6894ZM186.554 23.8257H185.973C185.651 23.8257 185.391 24.0801 185.391 24.3939V25.5303C185.391 25.8441 185.651 26.0984 185.973 26.0984H186.554C186.875 26.0984 187.135 25.8441 187.135 25.5303V24.3939C187.135 24.0801 186.875 23.8257 186.554 23.8257Z" fill="#2C3546"/>
    <path d="M34.4319 19.4948C35.635 19.4948 36.6819 20.3503 36.6819 22.3815V22.3894C36.6819 24.2878 35.8264 25.4128 34.4084 25.4128C33.3733 25.4128 32.5998 24.7995 32.4201 23.9362L32.4123 23.8933H33.4045L33.4162 23.9323C33.5647 24.3269 33.9123 24.5847 34.4084 24.5847C35.303 24.5847 35.6819 23.7097 35.7248 22.6315C35.7248 22.5886 35.7287 22.5456 35.7287 22.5026H35.6506C35.4436 22.948 34.9514 23.3425 34.178 23.3425C33.0959 23.3425 32.3381 22.5534 32.3381 21.4831V21.4753C32.3381 20.3308 33.2092 19.4948 34.4319 19.4948ZM34.428 22.569C35.0647 22.569 35.553 22.1081 35.553 21.4714V21.4636C35.553 20.819 35.0647 20.3151 34.4397 20.3151C33.8186 20.3151 33.3225 20.8112 33.3225 21.4401V21.448C33.3225 22.1003 33.7873 22.569 34.428 22.569ZM38.2793 21.6198C37.9238 21.6198 37.6582 21.3464 37.6582 21.0026C37.6582 20.655 37.9238 20.3855 38.2793 20.3855C38.6387 20.3855 38.9004 20.655 38.9004 21.0026C38.9004 21.3464 38.6387 21.6198 38.2793 21.6198ZM38.2793 24.5183C37.9238 24.5183 37.6582 24.2487 37.6582 23.9011C37.6582 23.5534 37.9238 23.2839 38.2793 23.2839C38.6387 23.2839 38.9004 23.5534 38.9004 23.9011C38.9004 24.2487 38.6387 24.5183 38.2793 24.5183ZM42.6111 25.2722V24.1901H39.8533V23.3659C40.5838 22.0964 41.3846 20.7995 42.1502 19.6355H43.576V23.3581H44.3338V24.1901H43.576V25.2722H42.6111ZM40.7908 23.3815H42.6267V20.4401H42.5681C41.99 21.323 41.3377 22.3659 40.7908 23.323V23.3815ZM46.4937 25.2722V20.6276H46.4273L45.025 21.6198V20.6706L46.4976 19.6355H47.5015V25.2722H46.4937Z" fill="#2C3546"/>
    <g filter="url(#filter2_b_0_32)">
        <rect x="72.5234" y="479.513" width="100.272" height="3.7415" rx="1.87075" fill="#5D6980"/>
    </g>
    <defs>
        <filter id="filter0_b_0_32" x="-2.94725" y="-4.94725" width="251.895" height="101.895" filterUnits="userSpaceOnUse" color-interpolation-filters="sRGB">
            <feFlood flood-opacity="0" result="BackgroundImageFix"/>
            <feGaussianBlur in="BackgroundImageFix" stdDeviation="7.97363"/>
            <feComposite in2="SourceAlpha" operator="in" result="effect1_backgroundBlur_0_32"/>
            <feBlend mode="normal" in="SourceGraphic" in2="effect1_backgroundBlur_0_32" result="shape"/>
        </filter>
        <filter id="filter1_b_0_32" x="-2.94725" y="65.0527" width="251.895" height="32.8945" filterUnits="userSpaceOnUse" color-interpolation-filters="sRGB">
            <feFlood flood-opacity="0" result="BackgroundImageFix"/>
            <feGaussianBlur in="BackgroundImageFix" stdDeviation="7.97363"/>
            <feComposite in2="SourceAlpha" operator="in" result="effect1_backgroundBlur_0_32"/>
            <feBlend mode="normal" in="SourceGraphic" in2="effect1_backgroundBlur_0_32" result="shape"/>
        </filter>
        <filter id="filter2_b_0_32" x="40.5465" y="447.536" width="164.226" height="67.6954" filterUnits="userSpaceOnUse" color-interpolation-filters="sRGB">
            <feFlood flood-opacity="0" result="BackgroundImageFix"/>
            <feGaussianBlur in="BackgroundImageFix" stdDeviation="15.9885"/>
            <feComposite in2="SourceAlpha" operator="in" result="effect1_backgroundBlur_0_32"/>
            <feBlend mode="normal" in="SourceGraphic" in2="effect1_backgroundBlur_0_32" result="shape"/>
        </filter>
    </defs>
</svg>
